<svg xmlns="http://www.w3.org/2000/svg" width="128.00" height="128.00" viewBox="0 0 128.00 128.00"><defs><linearGradient id="g0" x1="0" y1="0" x2="1" y2="1"><stop offset="0" stop-color="#f58a72"></stop><stop offset="0.55" stop-color="#f2755e"></stop><stop offset="1" stop-color="#c25e4a"></stop></linearGradient></defs><g transform="translate(0,0)"><rect x="0.00" y="0.00" width="128.00" height="128.00" rx="36.00" fill="url(#g0)"></rect><path transform="translate(38.39,89.09)" d="M28.29 0L4.90 0L4.90-55.31L28.29-55.31Q34.00-55.31 38.09-53.38Q42.17-51.45 44.32-47.85Q46.47-44.25 46.47-39.12L46.47-39.12Q46.47-35.49 44.47-32.22L44.47-32.22Q43.73-30.96 42.61-29.84L42.61-29.84Q43.73-29.10 44.62-28.21L44.62-28.21Q46.99-25.84 47.88-23.05Q48.78-20.27 48.78-17.22L48.78-17.22Q48.78-9.06 43.36-4.53Q37.94 0 28.29 0L28.29 0ZM16.41-24.50L16.41-10.02L29.62-10.02Q33.11-10.02 35.19-12.03Q37.27-14.03 37.27-17.22L37.27-17.22Q37.27-20.49 35.19-22.49Q33.11-24.50 29.62-24.50L29.62-24.50L16.41-24.50ZM16.41-45.66L16.41-34.52L29.10-34.52Q31.77-34.52 33.37-36.04Q34.97-37.57 34.97-40.09Q34.97-42.61 33.37-44.14Q31.77-45.66 29.10-45.66L29.10-45.66L16.41-45.66Z" fill="#ffffff"></path></g></svg>