<svg xmlns="http://www.w3.org/2000/svg" xmlns:xlink="http://www.w3.org/1999/xlink" width="850" zoomAndPan="magnify" viewBox="0 0 637.5 262.499992" height="350" preserveAspectRatio="xMidYMid meet" version="1.0"><defs><g/><clipPath id="5ab9e92ea8"><path d="M 13.230469 68.683594 L 137.867188 68.683594 L 137.867188 193.316406 L 13.230469 193.316406 Z M 13.230469 68.683594 " clip-rule="nonzero"/></clipPath><clipPath id="b17ead33b2"><path d="M 75.546875 68.683594 C 41.132812 68.683594 13.230469 96.582031 13.230469 131 C 13.230469 165.417969 41.132812 193.316406 75.546875 193.316406 C 109.964844 193.316406 137.867188 165.417969 137.867188 131 C 137.867188 96.582031 109.964844 68.683594 75.546875 68.683594 Z M 75.546875 68.683594 " clip-rule="nonzero"/></clipPath></defs><g fill="#000000" fill-opacity="1"><g transform="translate(142.787575, 174.401725)"><g><path d="M 9.546875 0 L 9.546875 -90.359375 L 53.578125 -90.359375 C 63.046875 -90.359375 70.53125 -88.164062 76.03125 -83.78125 C 81.539062 -79.394531 84.296875 -73.5 84.296875 -66.09375 C 84.296875 -61.789062 83.347656 -57.894531 81.453125 -54.40625 C 79.566406 -50.925781 76.859375 -48.195312 73.328125 -46.21875 C 77.628906 -44.320312 80.984375 -41.546875 83.390625 -37.890625 C 85.804688 -34.234375 87.015625 -29.992188 87.015625 -25.171875 C 87.015625 -20.265625 85.703125 -15.914062 83.078125 -12.125 C 80.453125 -8.34375 76.789062 -5.375 72.09375 -3.21875 C 67.40625 -1.070312 62.003906 0 55.890625 0 Z M 35.109375 -19.359375 L 50.859375 -19.359375 C 53.960938 -19.359375 56.351562 -20.109375 58.03125 -21.609375 C 59.707031 -23.117188 60.546875 -25.210938 60.546875 -27.890625 C 60.546875 -30.554688 59.707031 -32.617188 58.03125 -34.078125 C 56.351562 -35.546875 53.960938 -36.28125 50.859375 -36.28125 L 35.109375 -36.28125 Z M 35.109375 -54.859375 L 48.671875 -54.859375 C 54.953125 -54.859375 58.09375 -57.570312 58.09375 -63 C 58.09375 -68.414062 54.953125 -71.125 48.671875 -71.125 L 35.109375 -71.125 Z M 35.109375 -54.859375 "/></g></g></g><g fill="#000000" fill-opacity="1"><g transform="translate(233.538363, 174.401725)"><g><path d="M 8.65625 0 L 8.65625 -68.296875 L 26.46875 -68.296875 L 29.5625 -59.765625 C 31.71875 -62.773438 34.382812 -64.945312 37.5625 -66.28125 C 40.75 -67.625 44.707031 -68.296875 49.4375 -68.296875 L 57.453125 -68.296875 L 57.453125 -46.09375 L 49.578125 -46.09375 C 44.066406 -46.09375 40 -44.734375 37.375 -42.015625 C 34.75 -39.304688 33.4375 -35.023438 33.4375 -29.171875 L 33.4375 0 Z M 8.65625 0 "/></g></g></g><g fill="#000000" fill-opacity="1"><g transform="translate(294.985556, 174.401725)"><g><path d="M 8.65625 0 L 8.65625 -68.296875 L 33.4375 -68.296875 L 33.4375 0 Z M 6.203125 -91.65625 C 6.203125 -95.957031 7.597656 -99.421875 10.390625 -102.046875 C 13.191406 -104.671875 16.742188 -105.984375 21.046875 -105.984375 C 25.347656 -105.984375 28.894531 -104.671875 31.6875 -102.046875 C 34.488281 -99.421875 35.890625 -95.957031 35.890625 -91.65625 C 35.890625 -87.4375 34.488281 -83.972656 31.6875 -81.265625 C 28.894531 -78.554688 25.347656 -77.203125 21.046875 -77.203125 C 16.742188 -77.203125 13.191406 -78.554688 10.390625 -81.265625 C 7.597656 -83.972656 6.203125 -87.4375 6.203125 -91.65625 Z M 6.203125 -91.65625 "/></g></g></g><g fill="#000000" fill-opacity="1"><g transform="translate(337.069134, 174.401725)"><g><path d="M 38.859375 1.9375 C 32.054688 1.9375 26.03125 0.410156 20.78125 -2.640625 C 15.53125 -5.703125 11.421875 -9.941406 8.453125 -15.359375 C 5.484375 -20.785156 4 -27.066406 4 -34.203125 C 4 -41.265625 5.484375 -47.503906 8.453125 -52.921875 C 11.421875 -58.347656 15.53125 -62.585938 20.78125 -65.640625 C 26.03125 -68.703125 32.054688 -70.234375 38.859375 -70.234375 C 46.171875 -70.234375 52.625 -68.425781 58.21875 -64.8125 L 58.21875 -95.53125 L 83 -95.53125 L 83 0 L 65.1875 0 L 62.734375 -6.84375 C 59.722656 -4.09375 56.195312 -1.941406 52.15625 -0.390625 C 48.113281 1.160156 43.679688 1.9375 38.859375 1.9375 Z M 28.265625 -34.203125 C 28.265625 -29.648438 29.707031 -25.910156 32.59375 -22.984375 C 35.476562 -20.054688 39.203125 -18.59375 43.765625 -18.59375 C 48.328125 -18.59375 52.023438 -20.054688 54.859375 -22.984375 C 57.703125 -25.910156 59.125 -29.648438 59.125 -34.203125 C 59.125 -38.765625 57.703125 -42.488281 54.859375 -45.375 C 52.023438 -48.257812 48.328125 -49.703125 43.765625 -49.703125 C 39.203125 -49.703125 35.476562 -48.257812 32.59375 -45.375 C 29.707031 -42.488281 28.265625 -38.765625 28.265625 -34.203125 Z M 28.265625 -34.203125 "/></g></g></g><g fill="#000000" fill-opacity="1"><g transform="translate(428.723571, 174.401725)"><g><path d="M 43.640625 29.4375 C 33.046875 29.4375 24.5 27.085938 18 22.390625 C 11.507812 17.703125 7.921875 11.316406 7.234375 3.234375 L 31.109375 3.234375 C 31.628906 5.554688 32.941406 7.335938 35.046875 8.578125 C 37.160156 9.828125 39.851562 10.453125 43.125 10.453125 C 51.632812 10.453125 55.890625 5.976562 55.890625 -2.96875 L 55.890625 -8 C 50.390625 -4.382812 43.894531 -2.578125 36.40625 -2.578125 C 30.03125 -2.578125 24.410156 -4 19.546875 -6.84375 C 14.691406 -9.6875 10.882812 -13.644531 8.125 -18.71875 C 5.375 -23.789062 4 -29.6875 4 -36.40625 C 4 -43.113281 5.375 -49.003906 8.125 -54.078125 C 10.882812 -59.160156 14.691406 -63.125 19.546875 -65.96875 C 24.410156 -68.8125 30.03125 -70.234375 36.40625 -70.234375 C 46.382812 -70.234375 54.390625 -67.21875 60.421875 -61.1875 L 63 -68.296875 L 80.8125 -68.296875 L 80.8125 -3.484375 C 80.8125 7.097656 77.472656 15.226562 70.796875 20.90625 C 64.128906 26.59375 55.078125 29.4375 43.640625 29.4375 Z M 28.265625 -36.40625 C 28.265625 -32.1875 29.597656 -28.722656 32.265625 -26.015625 C 34.941406 -23.304688 38.382812 -21.953125 42.59375 -21.953125 C 46.8125 -21.953125 50.234375 -23.304688 52.859375 -26.015625 C 55.484375 -28.722656 56.796875 -32.1875 56.796875 -36.40625 C 56.796875 -40.625 55.484375 -44.066406 52.859375 -46.734375 C 50.234375 -49.398438 46.8125 -50.734375 42.59375 -50.734375 C 38.382812 -50.734375 34.941406 -49.398438 32.265625 -46.734375 C 29.597656 -44.066406 28.265625 -40.625 28.265625 -36.40625 Z M 28.265625 -36.40625 "/></g></g></g><g fill="#000000" fill-opacity="1"><g transform="translate(518.312552, 174.401725)"><g><path d="M 42.59375 1.9375 C 35.019531 1.9375 28.328125 0.410156 22.515625 -2.640625 C 16.710938 -5.703125 12.175781 -9.941406 8.90625 -15.359375 C 5.632812 -20.785156 4 -27.066406 4 -34.203125 C 4 -41.347656 5.632812 -47.609375 8.90625 -52.984375 C 12.175781 -58.367188 16.738281 -62.585938 22.59375 -65.640625 C 28.445312 -68.703125 35.160156 -70.234375 42.734375 -70.234375 C 50.910156 -70.234375 57.945312 -68.488281 63.84375 -65 C 69.738281 -61.507812 74.210938 -56.601562 77.265625 -50.28125 C 80.316406 -43.957031 81.628906 -36.535156 81.203125 -28.015625 L 28.53125 -28.015625 C 29.476562 -24.316406 31.285156 -21.519531 33.953125 -19.625 C 36.617188 -17.726562 39.675781 -16.78125 43.125 -16.78125 C 45.789062 -16.78125 48.238281 -17.253906 50.46875 -18.203125 C 52.707031 -19.148438 54.515625 -20.441406 55.890625 -22.078125 L 79.90625 -22.078125 C 76.894531 -14.503906 72.140625 -8.609375 65.640625 -4.390625 C 59.140625 -0.171875 51.457031 1.9375 42.59375 1.9375 Z M 28.65625 -41.4375 L 57.578125 -41.4375 C 56.546875 -44.625 54.800781 -47.117188 52.34375 -48.921875 C 49.894531 -50.734375 46.773438 -51.640625 42.984375 -51.640625 C 39.546875 -51.640625 36.554688 -50.753906 34.015625 -48.984375 C 31.472656 -47.222656 29.6875 -44.707031 28.65625 -41.4375 Z M 28.65625 -41.4375 "/></g></g></g><g clip-path="url(#5ab9e92ea8)"><g clip-path="url(#b17ead33b2)"><path fill="#000000" d="M 13.230469 68.683594 L 137.867188 68.683594 L 137.867188 193.316406 L 13.230469 193.316406 Z M 13.230469 68.683594 " fill-opacity="1" fill-rule="nonzero"/></g></g><g fill="#ffffff" fill-opacity="1"><g transform="translate(31.733563, 174.79205)"><g><path d="M 10.6875 0 L 10.6875 -89.03125 L 50.5 -89.03125 C 59.570312 -89.03125 66.773438 -86.867188 72.109375 -82.546875 C 77.453125 -78.222656 80.125 -72.414062 80.125 -65.125 C 80.125 -60.96875 79.191406 -57.191406 77.328125 -53.796875 C 75.460938 -50.410156 72.832031 -47.738281 69.4375 -45.78125 C 73.675781 -43.914062 76.960938 -41.160156 79.296875 -37.515625 C 81.628906 -33.867188 82.796875 -29.671875 82.796875 -24.921875 C 82.796875 -19.921875 81.523438 -15.554688 78.984375 -11.828125 C 76.441406 -8.097656 72.898438 -5.191406 68.359375 -3.109375 C 63.828125 -1.035156 58.550781 0 52.53125 0 Z M 30.65625 -16.03125 L 49.46875 -16.03125 C 53.457031 -16.03125 56.550781 -16.960938 58.75 -18.828125 C 60.957031 -20.691406 62.0625 -23.316406 62.0625 -26.703125 C 62.0625 -30.097656 60.957031 -32.726562 58.75 -34.59375 C 56.550781 -36.457031 53.457031 -37.390625 49.46875 -37.390625 L 30.65625 -37.390625 Z M 30.65625 -52.78125 L 47.4375 -52.78125 C 51.34375 -52.78125 54.332031 -53.671875 56.40625 -55.453125 C 58.488281 -57.234375 59.53125 -59.734375 59.53125 -62.953125 C 59.53125 -66.179688 58.488281 -68.660156 56.40625 -70.390625 C 54.332031 -72.128906 51.34375 -73 47.4375 -73 L 30.65625 -73 Z M 30.65625 -52.78125 "/></g></g></g></svg>